<?xml version="1.0" encoding="utf-8"?>
<!-- Generator: Adobe Illustrator 16.2.1, SVG Export Plug-In . SVG Version: 6.00 Build 0)  -->
<!DOCTYPE svg PUBLIC "-//W3C//DTD SVG 1.1//EN" "http://www.w3.org/Graphics/SVG/1.1/DTD/svg11.dtd">
<svg version="1.1" id="Layer_1" xmlns="http://www.w3.org/2000/svg" xmlns:xlink="http://www.w3.org/1999/xlink" x="0px" y="0px"
	 width="81px" height="93.808px" viewBox="0 0 81 93.808" enable-background="new 0 0 81 93.808" xml:space="preserve">
<g>
	<polygon fill="#FE7900" points="81,69.357 40.5,92.477 0,69.357 0,23.119 40.5,0 81,23.119 	"/>
	<g>
		<path fill="#FFFFFF" d="M36.85,33.219c-7.2,3.6-10.8,8.04-10.8,15.239c0.36-0.119,0.84-0.119,1.2-0.119
			c5.04,0,9.24,3.359,9.24,8.759c0,6-3.96,9.84-9.24,9.84c-7.44,0-11.28-5.879-11.28-15.719c0-11.28,5.52-20.04,17.04-25.679
			L36.85,33.219z M65.289,33.219c-7.201,3.6-10.801,8.04-10.801,15.239c0.361-0.119,0.84-0.119,1.201-0.119
			c5.039,0,9.119,3.359,9.119,8.759c0,6-3.84,9.84-9.119,9.84c-7.439,0-11.4-5.879-11.4-15.719c0-11.28,5.641-20.04,17.16-25.679
			L65.289,33.219z"/>
	</g>
</g>
</svg>
